# xmcd
#
# Track frame offsets:
#	150
#	18012
#	35124
#	48984
#	68652
#	84600
#	104570
#	123885
#	141495
#	159884
#	178614
#	198046
#	213004
#	231999
#	250536
#	266063
#	286476
#	305426
#	319891
#	339565
#
# Disc length: 4767 seconds
#
# Revision: 1
# Processed by: cddbd v1.5.1PL0 Copyright (c) Steve Scherf et al.
# Submitted via: audiograbber 1.83.01
#
DISCID=19129d14
DTITLE=Charlie Landsborough - A Portrait Of Charlie Landsborough [CDOne)
DYEAR=2005
DGENRE=Country
TTITLE0=What Colour Is The Wind
TTITLE1=I Will Love You All My Life
TTITLE2=Further Down The Road
TTITLE3=A Million Ways To Fall
TTITLE4=When I'm Dead And Gone
TTITLE5=Long And Heavy Chain
TTITLE6=Counterfeit Man
TTITLE7=I Dreamed I Was In Heaven
TTITLE8=The Green Hills Are Rolling Still
TTITLE9=My Forever Friend
TTITLE10=Heaven Knows
TTITLE11=Look What You've Done
TTITLE12=Love Love
TTITLE13=Leave Me
TTITLE14=Who Can Blame Him
TTITLE15=Crazy
TTITLE16=Always On My Mind
TTITLE17=Angels With One Wing
TTITLE18=It's Raining Outside
TTITLE19=Shine Your Light
EXTD=
EXTT0=
EXTT1=
EXTT2=
EXTT3=
EXTT4=
EXTT5=
EXTT6=
EXTT7=
EXTT8=
EXTT9=
EXTT10=
EXTT11=
EXTT12=
EXTT13=
EXTT14=
EXTT15=
EXTT16=
EXTT17=
EXTT18=
EXTT19=
PLAYORDER=
